<svg xmlns="http://www.w3.org/2000/svg" xmlns:xlink="http://www.w3.org/1999/xlink" width="2268" zoomAndPan="magnify" viewBox="0 0 1700.88 1700.999932" height="2268" preserveAspectRatio="xMidYMid meet" version="1.0"><defs><g/><clipPath id="d02b1f3210"><path d="M 0 649.417969 L 314 649.417969 L 314 901.574219 L 0 901.574219 Z M 0 649.417969 " clip-rule="nonzero"/></clipPath><clipPath id="f9e83a6e83"><path d="M 0 649.417969 L 314 649.417969 L 314 901.574219 L 0 901.574219 Z M 0 649.417969 " clip-rule="nonzero"/></clipPath><clipPath id="a9cb2be478"><path d="M 116 649.417969 L 544 649.417969 L 544 901.574219 L 116 901.574219 Z M 116 649.417969 " clip-rule="nonzero"/></clipPath><clipPath id="a66aa5a9f3"><path d="M 116 649.417969 L 544 649.417969 L 544 901.574219 L 116 901.574219 Z M 116 649.417969 " clip-rule="nonzero"/></clipPath></defs><path fill="#1e1e1e" d="M 637.394531 672.105469 C 619.601562 662.28125 598.5 657.457031 574 657.457031 L 495.851562 657.457031 L 495.851562 888.355469 L 574 888.355469 C 598.5 888.355469 619.691406 883.53125 637.394531 873.882812 C 655.1875 864.238281 668.777344 850.660156 678.4375 833.242188 C 688.003906 815.824219 692.832031 795.726562 692.832031 772.949219 C 692.832031 750.171875 688.003906 730.074219 678.4375 712.835938 C 668.867188 695.507812 655.1875 682.019531 637.394531 672.195312 Z M 640.34375 811.894531 C 634.621094 823.058594 626.128906 831.722656 614.683594 837.886719 C 603.238281 844.050781 589.109375 847.085938 572.03125 847.085938 L 539.394531 847.085938 L 539.394531 698.722656 L 572.03125 698.722656 C 589.019531 698.722656 603.238281 701.761719 614.683594 707.925781 C 626.128906 714.085938 634.621094 722.660156 640.34375 733.738281 C 646.066406 744.8125 648.929688 757.855469 648.929688 772.949219 C 648.929688 788.046875 646.066406 800.820312 640.34375 811.984375 Z M 640.34375 811.894531 " fill-opacity="1" fill-rule="nonzero"/><path fill="#1e1e1e" d="M 842.867188 729.988281 C 830.796875 722.484375 815.953125 718.730469 798.339844 718.730469 C 780.726562 718.730469 767.492188 722.75 754.796875 730.789062 C 742.097656 738.828125 732.085938 749.546875 724.753906 762.855469 C 717.421875 776.164062 713.753906 790.726562 713.753906 806.355469 C 713.753906 821.988281 717.507812 838.066406 724.929688 851.195312 C 732.351562 864.328125 742.546875 874.597656 755.601562 882.191406 C 768.65625 889.695312 783.40625 893.445312 799.949219 893.445312 C 816.492188 893.445312 833.660156 889.515625 846.085938 881.65625 C 858.605469 873.792969 868.710938 863.074219 876.398438 849.589844 L 842.152344 832.796875 C 838.308594 839.496094 832.855469 845.03125 825.96875 849.410156 C 819.085938 853.785156 810.589844 856.019531 800.484375 856.019531 C 790.382812 856.019531 784.035156 854.054688 777.058594 850.035156 C 770.085938 846.015625 764.542969 840.300781 760.429688 832.617188 C 757.835938 827.792969 756.136719 822.167969 755.242188 816.003906 L 878.632812 816.003906 C 878.8125 814.929688 879.082031 813.144531 879.261719 810.644531 C 879.4375 808.144531 879.617188 805.195312 879.617188 801.800781 C 879.617188 786.527344 876.488281 772.59375 870.230469 760 C 863.96875 747.402344 854.851562 737.398438 842.777344 729.808594 Z M 756.941406 786.082031 C 757.835938 783.042969 758.820312 780.183594 760.160156 777.503906 C 764.003906 769.914062 769.371094 763.929688 776.164062 759.640625 C 782.960938 755.355469 790.382812 753.210938 798.609375 753.210938 C 806.835938 753.210938 810.410156 754.191406 815.238281 756.246094 C 820.066406 758.300781 824.179688 760.890625 827.667969 764.105469 C 831.066406 767.324219 833.835938 770.894531 835.714844 774.738281 C 837.683594 778.578125 838.753906 782.328125 838.933594 785.992188 L 756.941406 785.992188 Z M 756.941406 786.082031 " fill-opacity="1" fill-rule="nonzero"/><path fill="#1e1e1e" d="M 973.144531 830.921875 L 970.550781 830.921875 L 928.886719 723.914062 L 880.871094 723.914062 L 950.523438 888.355469 L 992.546875 888.355469 L 1062.917969 723.914062 L 1015.4375 723.914062 Z M 973.144531 830.921875 " fill-opacity="1" fill-rule="nonzero"/><path fill="#1e1e1e" d="M 1083.75 888.355469 L 1127.296875 888.355469 L 1127.296875 796.085938 L 1219.929688 796.085938 L 1219.929688 754.816406 L 1127.296875 754.816406 L 1127.296875 698.722656 L 1230.300781 698.722656 L 1230.300781 657.457031 L 1083.75 657.457031 Z M 1083.75 888.355469 " fill-opacity="1" fill-rule="nonzero"/><path fill="#1e1e1e" d="M 1372.113281 729.988281 C 1360.039062 722.484375 1345.199219 718.730469 1327.582031 718.730469 C 1309.96875 718.730469 1296.734375 722.75 1284.039062 730.789062 C 1271.339844 738.828125 1261.328125 749.546875 1253.996094 762.855469 C 1246.664062 776.164062 1242.996094 790.726562 1242.996094 806.355469 C 1242.996094 821.988281 1246.753906 838.066406 1254.175781 851.195312 C 1261.59375 864.328125 1271.789062 874.597656 1284.84375 882.191406 C 1297.898438 889.695312 1312.652344 893.445312 1329.191406 893.445312 C 1345.734375 893.445312 1362.902344 889.515625 1375.332031 881.65625 C 1387.847656 873.792969 1397.953125 863.074219 1405.640625 849.589844 L 1371.394531 832.796875 C 1367.550781 839.496094 1362.097656 845.03125 1355.210938 849.410156 C 1348.328125 853.785156 1339.832031 856.019531 1329.730469 856.019531 C 1319.625 856.019531 1313.277344 854.054688 1306.300781 850.035156 C 1299.328125 846.015625 1293.785156 840.300781 1289.671875 832.617188 C 1287.078125 827.792969 1285.378906 822.167969 1284.484375 816.003906 L 1407.878906 816.003906 C 1408.054688 814.929688 1408.324219 813.144531 1408.503906 810.644531 C 1408.683594 808.144531 1408.859375 805.195312 1408.859375 801.800781 C 1408.859375 786.527344 1405.730469 772.59375 1399.472656 760 C 1393.214844 747.402344 1384.09375 737.398438 1372.023438 729.808594 Z M 1286.273438 786.082031 C 1287.167969 783.042969 1288.152344 780.183594 1289.492188 777.503906 C 1293.335938 769.914062 1298.703125 763.929688 1305.496094 759.640625 C 1312.292969 755.355469 1319.714844 753.210938 1327.941406 753.210938 C 1336.167969 753.210938 1339.742188 754.191406 1344.570312 756.246094 C 1349.398438 758.300781 1353.511719 760.890625 1357 764.105469 C 1360.398438 767.324219 1363.171875 770.894531 1365.046875 774.738281 C 1367.015625 778.578125 1368.085938 782.328125 1368.265625 785.992188 L 1286.273438 785.992188 Z M 1286.273438 786.082031 " fill-opacity="1" fill-rule="nonzero"/><path fill="#1e1e1e" d="M 1517.945312 790.277344 L 1493.714844 784.472656 C 1487.722656 782.953125 1482.539062 780.722656 1478.246094 777.683594 C 1473.953125 774.648438 1471.808594 771.164062 1471.808594 767.054688 C 1471.808594 762.945312 1473.953125 759.820312 1478.246094 757.050781 C 1482.539062 754.28125 1488.351562 752.851562 1495.683594 752.851562 C 1503.015625 752.851562 1507.753906 754.101562 1513.296875 756.695312 C 1518.75 759.285156 1523.222656 763.75 1526.707031 770.269531 L 1562.832031 754.460938 C 1558.988281 746.332031 1553.800781 739.542969 1547.363281 734.273438 C 1540.925781 729.003906 1533.234375 725.074219 1524.472656 722.484375 C 1515.621094 719.894531 1505.785156 718.640625 1494.789062 718.640625 C 1483.789062 718.640625 1472.164062 720.695312 1462.332031 724.804688 C 1452.496094 728.914062 1444.804688 734.632812 1439.082031 741.867188 C 1433.359375 749.191406 1430.5 757.765625 1430.5 767.679688 C 1430.5 777.59375 1432.734375 784.292969 1437.117188 791.082031 C 1441.496094 797.871094 1447.308594 803.410156 1454.371094 807.875 C 1461.4375 812.25 1469.035156 815.378906 1476.996094 817.074219 L 1496.398438 821.273438 C 1500.957031 822.167969 1505.339844 823.238281 1509.628906 824.667969 C 1513.921875 826.097656 1517.5 827.972656 1520.449219 830.472656 C 1523.3125 832.972656 1524.832031 836.367188 1524.832031 840.65625 C 1524.832031 844.945312 1522.058594 850.839844 1516.425781 853.070312 C 1510.792969 855.304688 1504.625 856.464844 1497.738281 856.464844 C 1490.855469 856.464844 1482 854.5 1475.832031 850.480469 C 1469.574219 846.460938 1464.65625 840.65625 1460.988281 832.886719 L 1423.257812 849.320312 C 1426.296875 857.269531 1430.855469 864.59375 1437.117188 871.203125 C 1443.375 877.902344 1451.511719 883.261719 1461.527344 887.371094 C 1471.539062 891.480469 1483.609375 893.535156 1497.828125 893.535156 C 1512.042969 893.535156 1522.507812 891.300781 1533.058594 886.925781 C 1543.609375 882.546875 1552.011719 876.296875 1558.273438 868.257812 C 1564.53125 860.21875 1567.660156 850.75 1567.660156 840.03125 C 1567.660156 829.3125 1563.546875 817.699219 1555.230469 809.035156 C 1546.917969 800.460938 1534.667969 794.207031 1518.304688 790.367188 Z M 1517.945312 790.277344 " fill-opacity="1" fill-rule="nonzero"/><path fill="#1e1e1e" d="M 1681.214844 849.855469 C 1678.175781 850.839844 1674.957031 851.285156 1671.558594 851.285156 C 1664.226562 851.285156 1658.953125 849.410156 1655.734375 845.65625 C 1652.515625 841.90625 1650.90625 836.011719 1650.90625 828.0625 L 1650.90625 760 L 1691.230469 760 L 1691.230469 723.914062 L 1650.90625 723.914062 L 1650.90625 677.464844 L 1608.613281 677.464844 L 1608.613281 723.914062 L 1579.910156 723.914062 L 1579.910156 760 L 1608.613281 760 L 1608.613281 835.742188 C 1608.613281 852.984375 1613.441406 866.46875 1623.097656 876.207031 C 1632.753906 886.03125 1646.164062 890.855469 1663.15625 890.855469 C 1680.144531 890.855469 1673.347656 890.410156 1678.175781 889.425781 C 1683.003906 888.441406 1687.832031 887.101562 1692.570312 885.40625 L 1692.570312 844.140625 C 1688.011719 846.910156 1684.257812 848.785156 1681.304688 849.765625 Z M 1681.214844 849.855469 " fill-opacity="1" fill-rule="nonzero"/><path fill="#ea4335" d="M 26.609375 736.496094 L 121.734375 668.214844 C 122.914062 667.367188 124.136719 666.578125 125.394531 665.851562 C 126.652344 665.121094 127.945312 664.457031 129.269531 663.855469 C 130.597656 663.253906 131.949219 662.71875 133.324219 662.25 C 134.703125 661.777344 136.101562 661.378906 137.515625 661.046875 C 138.933594 660.714844 140.363281 660.453125 141.804688 660.261719 C 143.25 660.070312 144.699219 659.949219 146.152344 659.898438 C 147.605469 659.851562 149.058594 659.871094 150.511719 659.964844 C 151.964844 660.058594 153.410156 660.222656 154.847656 660.457031 C 156.28125 660.691406 157.703125 660.996094 159.109375 661.371094 C 160.515625 661.746094 161.902344 662.1875 163.265625 662.699219 C 164.625 663.207031 165.960938 663.785156 167.265625 664.425781 C 168.574219 665.066406 169.84375 665.769531 171.082031 666.539062 C 172.320312 667.304688 173.515625 668.128906 174.671875 669.011719 C 175.828125 669.894531 176.9375 670.832031 178 671.824219 C 179.0625 672.820312 180.074219 673.859375 181.039062 674.953125 C 182 676.042969 182.902344 677.179688 183.753906 678.359375 L 183.804688 678.433594 C 184.652344 679.613281 185.445312 680.832031 186.171875 682.09375 C 186.902344 683.351562 187.566406 684.640625 188.171875 685.964844 C 188.773438 687.289062 189.308594 688.636719 189.777344 690.015625 C 190.25 691.390625 190.648438 692.785156 190.980469 694.203125 C 191.3125 695.617188 191.574219 697.046875 191.769531 698.488281 C 191.960938 699.929688 192.082031 701.375 192.128906 702.828125 C 192.179688 704.28125 192.15625 705.734375 192.0625 707.183594 C 191.972656 708.636719 191.808594 710.078125 191.570312 711.511719 C 191.335938 712.949219 191.03125 714.367188 190.65625 715.773438 C 190.28125 717.175781 189.839844 718.558594 189.328125 719.921875 C 188.816406 721.285156 188.242188 722.617188 187.597656 723.921875 C 186.957031 725.226562 186.253906 726.496094 185.484375 727.730469 C 184.71875 728.96875 183.890625 730.164062 183.007812 731.316406 C 182.125 732.472656 181.183594 733.582031 180.191406 734.644531 C 179.199219 735.707031 178.152344 736.71875 177.0625 737.675781 C 175.96875 738.636719 174.832031 739.542969 173.648438 740.390625 L 78.527344 808.671875 C 77.34375 809.519531 76.125 810.308594 74.863281 811.035156 C 73.605469 811.765625 72.3125 812.429688 70.988281 813.03125 C 69.664062 813.632812 68.3125 814.167969 66.933594 814.636719 C 65.558594 815.109375 64.160156 815.507812 62.742188 815.839844 C 61.324219 816.171875 59.894531 816.433594 58.453125 816.625 C 57.011719 816.816406 55.5625 816.9375 54.105469 816.988281 C 52.652344 817.035156 51.199219 817.015625 49.746094 816.921875 C 48.292969 816.828125 46.851562 816.664062 45.414062 816.429688 C 43.976562 816.195312 42.554688 815.890625 41.148438 815.515625 C 39.742188 815.140625 38.359375 814.699219 36.996094 814.1875 C 35.632812 813.675781 34.296875 813.101562 32.992188 812.460938 C 31.6875 811.820312 30.414062 811.117188 29.179688 810.347656 C 27.941406 809.582031 26.746094 808.757812 25.589844 807.875 C 24.433594 806.992188 23.324219 806.054688 22.257812 805.058594 C 21.195312 804.066406 20.183594 803.027344 19.222656 801.933594 C 18.261719 800.84375 17.355469 799.707031 16.507812 798.523438 L 16.453125 798.453125 C 15.605469 797.273438 14.816406 796.050781 14.085938 794.792969 C 13.359375 793.535156 12.691406 792.246094 12.089844 790.921875 C 11.488281 789.597656 10.949219 788.25 10.480469 786.871094 C 10.011719 785.496094 9.609375 784.101562 9.277344 782.683594 C 8.945312 781.269531 8.683594 779.839844 8.492188 778.398438 C 8.300781 776.957031 8.179688 775.511719 8.128906 774.058594 C 8.082031 772.605469 8.101562 771.152344 8.195312 769.703125 C 8.289062 768.25 8.453125 766.808594 8.6875 765.375 C 8.921875 763.9375 9.226562 762.519531 9.601562 761.113281 C 9.976562 759.710938 10.421875 758.324219 10.933594 756.964844 C 11.441406 755.601562 12.019531 754.269531 12.660156 752.964844 C 13.304688 751.660156 14.007812 750.390625 14.773438 749.15625 C 15.542969 747.917969 16.367188 746.722656 17.25 745.570312 C 18.136719 744.414062 19.074219 743.304688 20.070312 742.242188 C 21.0625 741.179688 22.105469 740.167969 23.199219 739.210938 C 24.292969 738.25 25.429688 737.34375 26.609375 736.496094 Z M 26.609375 736.496094 " fill-opacity="1" fill-rule="nonzero"/><g clip-path="url(#d02b1f3210)"><path stroke-linecap="butt" transform="matrix(0.726118, -0.52123, 0.521769, 0.725368, -32.318317, 723.912563)" fill="none" stroke-linejoin="miter" d="M 45.298816 49.898297 L 176.302093 49.900418 C 177.927292 49.899653 179.553236 49.980203 181.170279 50.140519 C 182.789874 50.297283 184.398015 50.537366 185.993707 50.854666 C 187.592946 51.174516 189.170089 51.570036 190.725135 52.041226 C 192.286281 52.511414 193.816679 53.061826 195.317884 53.682809 C 196.822636 54.306342 198.292097 55.001448 199.726266 55.768128 C 201.163982 56.537357 202.559311 57.373062 203.912253 58.275241 C 205.262642 59.180972 206.569648 60.147077 207.828167 61.18066 C 209.086686 62.214242 210.292174 63.306651 211.444631 64.457888 C 212.593541 65.606575 213.685872 66.81154 214.718076 68.070233 C 215.750281 69.328927 216.721363 70.635248 217.625224 71.990199 C 218.528088 73.339049 219.363731 74.736529 220.130161 76.170437 C 220.900138 77.606894 221.593807 79.074682 222.215709 80.582448 C 222.840164 82.086664 223.387314 83.616108 223.860708 85.173331 C 224.334101 86.730553 224.729193 88.306904 225.045985 89.902383 C 225.360225 91.501413 225.600273 93.106368 225.76202 94.730451 C 225.922771 96.348433 225.999683 97.970792 226.002402 99.599076 L 226.000035 99.699695 C 225.999207 101.325429 225.92319 102.950988 225.758789 104.572274 C 225.600488 106.192557 225.36146 107.797914 225.046248 109.396993 C 224.727488 110.993523 224.333104 112.568024 223.857993 114.127597 C 223.388981 115.686168 222.839802 117.214059 222.215 118.719921 C 221.592749 120.222231 220.896431 121.692858 220.132146 123.130802 C 219.364312 124.566196 218.530067 125.959254 217.623311 127.310978 C 216.720102 128.66525 215.749486 129.971086 214.717562 131.227483 C 213.686634 132.48998 212.595955 133.693386 211.442972 134.841252 C 210.290985 135.995218 209.087898 137.08554 207.828607 138.11932 C 206.571868 139.149548 205.267577 140.11868 203.912187 141.024168 C 202.556796 141.929655 201.165057 142.765942 199.727322 143.531482 C 198.293135 144.29957 196.825151 144.994906 195.319823 145.614942 C 193.815491 146.241077 192.282466 146.787358 190.727844 147.258883 C 189.17067 147.733959 187.590904 148.128178 185.99564 148.446639 C 184.400376 148.7651 182.788619 149.001702 181.173564 149.160541 C 179.55241 149.320382 177.927957 149.402461 176.299211 149.400676 L 45.299481 149.401104 C 43.670735 149.39932 42.048338 149.32132 40.427748 149.158454 C 38.808153 149.00169 37.200012 148.761607 35.60432 148.444307 C 34.008628 148.127006 32.431485 147.731487 30.872891 147.257747 C 29.315293 146.790109 27.784896 146.239697 26.280143 145.616164 C 24.77539 144.992631 23.305929 144.297525 21.871761 143.530845 C 20.437592 142.764165 19.042263 141.928461 17.685774 141.023732 C 16.335384 140.118001 15.028378 139.151896 13.769859 138.118313 C 12.511341 137.084731 11.3094 135.994871 10.156943 134.843635 C 9.004486 133.692398 7.912155 132.487433 6.87995 131.22874 C 5.847746 129.970046 4.880211 128.666275 3.976351 127.311324 C 3.07249 125.956373 2.234295 124.562444 1.467866 123.128536 C 0.701436 121.694628 0.00422006 120.224292 -0.614135 118.719074 C -1.23859 117.214859 -1.78574 115.685414 -2.259133 114.128192 C -2.732526 112.570969 -3.127619 110.994618 -3.445407 109.393039 C -3.762199 107.79756 -4.002246 106.192605 -4.160446 104.571072 C -4.321197 102.95309 -4.401656 101.328181 -4.398275 99.698895 L -4.402009 99.599278 C -4.40118 97.973544 -4.319063 96.346983 -4.160762 94.7267 C -3.998914 93.108965 -3.763433 91.501059 -3.444673 89.904529 C -3.125913 88.307999 -2.735077 86.730949 -2.259966 85.171376 C -1.787407 83.615354 -1.241776 82.084914 -0.616973 80.579052 C 0.00527734 79.076743 0.701595 77.606115 1.469429 76.170721 C 2.237262 74.735326 3.071507 73.342269 3.974716 71.987996 C 4.881472 70.636272 5.848541 69.327887 6.880464 68.07149 C 7.91494 66.811542 9.00562 65.608137 10.155055 64.457721 C 11.307042 63.303755 12.510129 62.213433 13.76942 61.179653 C 15.026158 60.149425 16.336549 59.179291 17.689388 58.277355 C 19.041231 57.369318 20.436517 56.53558 21.870705 55.767492 C 23.30844 55.001952 24.776424 54.306616 26.278204 53.684032 C 27.786084 53.060445 29.315561 52.511615 30.870182 52.04009 C 32.430904 51.567563 34.007123 51.170795 35.605934 50.854883 C 37.201198 50.536422 38.809408 50.297271 40.42801 50.140982 C 42.049165 49.98114 43.673617 49.899062 45.298816 49.898297 Z M 45.298816 49.898297 " stroke="#1e1e1e" stroke-width="9.6" stroke-opacity="1" stroke-miterlimit="10"/></g><path fill="#4285f4" d="M 16.460938 746.726562 L 16.511719 746.652344 C 17.363281 745.472656 18.265625 744.335938 19.226562 743.242188 C 20.1875 742.152344 21.203125 741.109375 22.265625 740.117188 C 23.328125 739.125 24.4375 738.1875 25.59375 737.304688 C 26.75 736.417969 27.945312 735.59375 29.183594 734.828125 C 30.421875 734.0625 31.691406 733.359375 33 732.71875 C 34.304688 732.074219 35.640625 731.5 37 730.988281 C 38.363281 730.480469 39.75 730.039062 41.15625 729.664062 C 42.5625 729.289062 43.984375 728.984375 45.417969 728.75 C 46.855469 728.511719 48.300781 728.347656 49.753906 728.257812 C 51.203125 728.164062 52.660156 728.140625 54.113281 728.191406 C 55.566406 728.238281 57.015625 728.359375 58.460938 728.550781 C 59.902344 728.742188 61.332031 729.007812 62.75 729.339844 C 64.164062 729.671875 65.5625 730.070312 66.941406 730.539062 C 68.316406 731.007812 69.667969 731.542969 70.992188 732.144531 C 72.320312 732.746094 73.609375 733.414062 74.871094 734.140625 C 76.128906 734.871094 77.351562 735.660156 78.53125 736.507812 L 173.65625 804.789062 C 174.835938 805.636719 175.972656 806.539062 177.066406 807.5 C 178.160156 808.460938 179.203125 809.472656 180.195312 810.535156 C 181.191406 811.597656 182.128906 812.707031 183.011719 813.859375 C 183.898438 815.015625 184.722656 816.210938 185.492188 817.445312 C 186.257812 818.679688 186.960938 819.953125 187.605469 821.257812 C 188.246094 822.5625 188.824219 823.894531 189.332031 825.257812 C 189.84375 826.617188 190.289062 828 190.660156 829.40625 C 191.035156 830.808594 191.34375 832.230469 191.578125 833.664062 C 191.8125 835.101562 191.976562 836.542969 192.070312 837.992188 C 192.164062 839.445312 192.183594 840.898438 192.136719 842.347656 C 192.085938 843.800781 191.964844 845.25 191.773438 846.691406 C 191.582031 848.132812 191.320312 849.5625 190.988281 850.976562 C 190.65625 852.390625 190.253906 853.789062 189.785156 855.164062 C 189.316406 856.539062 188.777344 857.890625 188.175781 859.214844 C 187.574219 860.535156 186.90625 861.828125 186.179688 863.085938 C 185.449219 864.34375 184.660156 865.5625 183.808594 866.742188 L 183.757812 866.816406 C 182.910156 867.996094 182.003906 869.132812 181.042969 870.226562 C 180.082031 871.316406 179.070312 872.359375 178.003906 873.351562 C 176.941406 874.34375 175.832031 875.28125 174.675781 876.167969 C 173.519531 877.050781 172.324219 877.875 171.085938 878.640625 C 169.851562 879.40625 168.578125 880.109375 167.273438 880.753906 C 165.964844 881.394531 164.632812 881.96875 163.269531 882.480469 C 161.90625 882.988281 160.523438 883.433594 159.117188 883.808594 C 157.710938 884.179688 156.289062 884.484375 154.851562 884.722656 C 153.414062 884.957031 151.972656 885.121094 150.519531 885.214844 C 149.066406 885.304688 147.613281 885.328125 146.15625 885.277344 C 144.703125 885.230469 143.253906 885.109375 141.8125 884.917969 C 140.371094 884.726562 138.941406 884.464844 137.523438 884.132812 C 136.105469 883.800781 134.707031 883.398438 133.332031 882.929688 C 131.953125 882.460938 130.601562 881.925781 129.277344 881.324219 C 127.953125 880.722656 126.660156 880.054688 125.402344 879.328125 C 124.140625 878.597656 122.921875 877.8125 121.738281 876.960938 L 26.617188 808.679688 C 25.433594 807.832031 24.296875 806.929688 23.203125 805.96875 C 22.113281 805.007812 21.066406 803.996094 20.074219 802.933594 C 19.082031 801.871094 18.140625 800.765625 17.257812 799.609375 C 16.375 798.453125 15.546875 797.257812 14.78125 796.023438 C 14.011719 794.789062 13.308594 793.519531 12.667969 792.210938 C 12.023438 790.90625 11.449219 789.574219 10.9375 788.214844 C 10.425781 786.851562 9.984375 785.46875 9.609375 784.0625 C 9.234375 782.660156 8.929688 781.238281 8.695312 779.804688 C 8.457031 778.371094 8.292969 776.925781 8.203125 775.476562 C 8.109375 774.023438 8.085938 772.574219 8.136719 771.121094 C 8.183594 769.667969 8.304688 768.21875 8.496094 766.777344 C 8.691406 765.335938 8.953125 763.910156 9.285156 762.492188 C 9.617188 761.078125 10.015625 759.683594 10.488281 758.304688 C 10.957031 756.929688 11.492188 755.578125 12.09375 754.257812 C 12.699219 752.933594 13.363281 751.640625 14.09375 750.382812 C 14.820312 749.125 15.613281 747.90625 16.460938 746.726562 Z M 16.460938 746.726562 " fill-opacity="1" fill-rule="nonzero"/><g clip-path="url(#f9e83a6e83)"><path stroke-linecap="butt" transform="matrix(0.521769, -0.725368, 0.726118, 0.52123, -85.519796, 795.280693)" fill="none" stroke-linejoin="miter" d="M 110.6991 60.901043 L 110.799719 60.898677 C 112.428003 60.901395 114.050362 60.978307 115.671896 61.136506 C 117.289878 61.297258 118.900933 61.538301 120.496412 61.855093 C 122.091891 62.171885 123.668242 62.566978 125.225464 63.040371 C 126.786238 63.511212 128.315682 64.058362 129.819898 64.682817 C 131.324113 65.307272 132.791901 66.00094 134.228358 66.770917 C 135.665818 67.534795 137.059746 68.37299 138.412148 69.273303 C 139.763547 70.179715 141.069868 71.150798 142.328562 72.183002 C 143.587255 73.215207 144.79222 74.307538 145.940907 75.456447 C 147.095695 76.606352 148.188104 77.81184 149.218135 79.072911 C 150.249168 80.327882 151.221374 81.635884 152.123554 82.988826 C 153.029285 84.339215 153.864989 85.734544 154.634218 87.17226 C 155.400898 88.606429 156.092453 90.078442 156.715986 91.583195 C 157.336969 93.0844 157.887381 94.614797 158.36112 96.173391 C 158.83231 97.728437 159.22783 99.30558 159.545131 100.901272 C 159.86498 102.500511 160.098962 104.107657 160.261828 105.728247 C 160.418592 107.347842 160.499141 108.973786 160.498377 110.598985 L 160.500498 241.602262 C 160.499733 243.227461 160.421206 244.849361 160.261365 246.470516 C 160.101524 248.091671 159.862373 249.69988 159.543912 251.295144 C 159.228 252.893955 158.831232 254.470174 158.359707 256.024796 C 157.88718 257.585518 157.33835 259.114995 156.718315 260.620323 C 156.09573 262.122103 155.396843 263.592638 154.631303 265.030373 C 153.863215 266.464561 153.029477 267.859848 152.12144 269.211691 C 151.219504 270.564529 150.252921 271.872368 149.216592 273.128111 C 148.186364 274.38485 147.09504 275.594036 145.944625 276.743471 C 144.790658 277.895459 143.587252 278.986138 142.330856 280.018062 C 141.070908 281.052537 139.762523 282.019606 138.414351 282.92381 C 137.060078 283.827019 135.663469 284.663816 134.228074 285.431649 C 132.79268 286.199483 131.322052 286.895801 129.819742 287.518051 C 128.317433 288.140302 126.783441 288.688485 125.227419 289.161044 C 123.671397 289.633604 122.090796 290.026991 120.494266 290.345752 C 118.901287 290.66196 117.28983 290.899992 115.672095 291.061841 C 114.051812 291.220141 112.428803 291.299706 110.800519 291.296987 L 110.6999 291.299354 C 109.074166 291.300182 107.449257 291.219723 105.827723 291.061524 C 104.209741 290.900773 102.601235 290.663277 101.003207 290.342937 C 99.407728 290.026145 97.831377 289.631053 96.270603 289.160211 C 94.713381 288.686818 93.183936 288.139668 91.679721 287.515213 C 90.178055 286.894306 88.707718 286.19709 87.270259 285.433213 C 85.833801 284.663235 84.442422 283.828588 83.087471 282.924728 C 81.736072 282.018315 80.428749 281.053332 79.170055 280.021128 C 77.914913 278.986371 76.709948 277.89404 75.55516 276.744135 C 74.403924 275.591678 73.314064 274.389738 72.280481 273.131219 C 71.250451 271.870148 70.280794 270.565694 69.376065 269.209205 C 68.470334 267.858815 67.63463 266.463486 66.86795 265.029318 C 66.10127 263.595149 65.406163 262.125688 64.782631 260.620935 C 64.159098 259.116182 63.612238 257.583233 63.141048 256.028187 C 62.667308 254.469593 62.271789 252.89245 61.954488 251.296758 C 61.637188 249.701067 61.400657 248.090373 61.240341 246.473331 C 61.081027 244.850188 60.999475 243.230344 61.001242 241.599045 L 61.00167 110.599315 C 60.999885 108.970569 61.078413 107.348669 61.238254 105.727514 C 61.400645 104.109907 61.637246 102.49815 61.955707 100.902886 C 62.274168 99.307622 62.664836 97.730408 63.139912 96.173234 C 63.614988 94.61606 64.161269 93.083036 64.783853 91.581255 C 65.403888 90.075927 66.099225 88.607944 66.870865 87.171204 C 67.636404 85.733469 68.472691 84.34173 69.374627 82.988892 C 70.280115 81.633501 71.249247 80.32921 72.283027 79.069919 C 73.313255 77.813181 74.407128 76.607542 75.557543 75.458106 C 76.705409 74.305124 77.912366 73.211892 79.171312 72.183516 C 80.43126 71.14904 81.733545 70.180976 83.087817 69.277768 C 84.439541 68.371011 85.83615 67.534214 87.271545 66.766381 C 88.709488 66.002095 90.176564 65.308329 91.682426 64.683527 C 93.184736 64.061276 94.712627 63.512097 96.274749 63.040534 C 97.830771 62.567974 99.408823 62.171039 101.001802 61.854831 C 102.600881 61.539618 104.209789 61.298038 105.830073 61.139737 C 107.447807 60.977889 109.073366 60.901872 110.6991 60.901043 Z M 110.6991 60.901043 " stroke="#1e1e1e" stroke-width="9.6" stroke-opacity="1" stroke-miterlimit="10"/></g><path fill="#f9ab00" d="M 256.25 804.730469 L 351.371094 736.449219 C 352.554688 735.601562 353.773438 734.8125 355.035156 734.082031 C 356.292969 733.355469 357.585938 732.6875 358.910156 732.085938 C 360.234375 731.484375 361.585938 730.949219 362.964844 730.480469 C 364.339844 730.011719 365.738281 729.609375 367.15625 729.277344 C 368.574219 728.945312 370.003906 728.683594 371.445312 728.492188 C 372.886719 728.300781 374.335938 728.179688 375.792969 728.132812 C 377.246094 728.082031 378.699219 728.105469 380.152344 728.199219 C 381.605469 728.289062 383.046875 728.453125 384.484375 728.691406 C 385.921875 728.925781 387.34375 729.230469 388.75 729.605469 C 390.15625 729.976562 391.539062 730.421875 392.902344 730.929688 C 394.265625 731.441406 395.601562 732.015625 396.90625 732.660156 C 398.210938 733.300781 399.484375 734.003906 400.71875 734.769531 C 401.957031 735.535156 403.152344 736.359375 404.308594 737.246094 C 405.464844 738.128906 406.574219 739.066406 407.640625 740.058594 C 408.703125 741.050781 409.714844 742.09375 410.675781 743.183594 C 411.636719 744.277344 412.542969 745.414062 413.390625 746.59375 L 413.445312 746.667969 C 414.292969 747.847656 415.082031 749.066406 415.8125 750.324219 C 416.539062 751.582031 417.207031 752.875 417.808594 754.199219 C 418.410156 755.519531 418.949219 756.871094 419.417969 758.246094 C 419.886719 759.625 420.289062 761.019531 420.621094 762.433594 C 420.953125 763.851562 421.214844 765.277344 421.40625 766.71875 C 421.597656 768.160156 421.71875 769.609375 421.769531 771.0625 C 421.816406 772.515625 421.796875 773.964844 421.703125 775.417969 C 421.609375 776.867188 421.445312 778.3125 421.210938 779.746094 C 420.976562 781.179688 420.671875 782.601562 420.296875 784.003906 C 419.921875 785.410156 419.476562 786.792969 418.964844 788.15625 C 418.457031 789.515625 417.878906 790.847656 417.238281 792.152344 C 416.59375 793.457031 415.890625 794.730469 415.125 795.964844 C 414.355469 797.199219 413.53125 798.394531 412.648438 799.550781 C 411.761719 800.703125 410.824219 801.8125 409.828125 802.875 C 408.835938 803.9375 407.792969 804.949219 406.699219 805.910156 C 405.605469 806.871094 404.46875 807.773438 403.289062 808.621094 L 308.164062 876.902344 C 306.984375 877.75 305.761719 878.539062 304.503906 879.269531 C 303.246094 879.996094 301.953125 880.664062 300.628906 881.265625 C 299.300781 881.867188 297.949219 882.402344 296.574219 882.871094 C 295.195312 883.339844 293.796875 883.742188 292.382812 884.074219 C 290.964844 884.40625 289.535156 884.667969 288.09375 884.859375 C 286.648438 885.050781 285.199219 885.171875 283.746094 885.21875 C 282.292969 885.269531 280.839844 885.246094 279.386719 885.15625 C 277.933594 885.0625 276.488281 884.898438 275.050781 884.664062 C 273.617188 884.425781 272.195312 884.121094 270.789062 883.746094 C 269.382812 883.375 267.996094 882.929688 266.632812 882.421875 C 265.273438 881.910156 263.9375 881.335938 262.632812 880.691406 C 261.324219 880.050781 260.054688 879.347656 258.816406 878.582031 C 257.578125 877.816406 256.382812 876.992188 255.226562 876.105469 C 254.070312 875.222656 252.960938 874.285156 251.898438 873.292969 C 250.835938 872.300781 249.824219 871.257812 248.863281 870.167969 C 247.898438 869.074219 246.996094 867.9375 246.144531 866.757812 L 246.09375 866.683594 C 245.246094 865.503906 244.453125 864.285156 243.726562 863.027344 C 242.996094 861.769531 242.332031 860.476562 241.726562 859.15625 C 241.125 857.832031 240.589844 856.480469 240.121094 855.105469 C 239.648438 853.730469 239.25 852.332031 238.917969 850.917969 C 238.585938 849.5 238.324219 848.074219 238.128906 846.632812 C 237.9375 845.191406 237.816406 843.742188 237.769531 842.289062 C 237.71875 840.835938 237.742188 839.386719 237.835938 837.933594 C 237.925781 836.484375 238.089844 835.039062 238.328125 833.605469 C 238.5625 832.171875 238.867188 830.75 239.242188 829.347656 C 239.617188 827.941406 240.058594 826.558594 240.570312 825.195312 C 241.082031 823.835938 241.65625 822.503906 242.300781 821.199219 C 242.941406 819.894531 243.648438 818.621094 244.414062 817.386719 C 245.179688 816.152344 246.007812 814.957031 246.890625 813.800781 C 247.773438 812.648438 248.714844 811.539062 249.707031 810.476562 C 250.703125 809.414062 251.746094 808.402344 252.835938 807.441406 C 253.929688 806.480469 255.066406 805.578125 256.25 804.730469 Z M 256.25 804.730469 " fill-opacity="1" fill-rule="nonzero"/><g clip-path="url(#a9cb2be478)"><path stroke-linecap="butt" transform="matrix(0.726118, -0.52123, 0.521769, 0.725368, -29.009988, 870.578953)" fill="none" stroke-linejoin="miter" d="M 302.099488 126.301061 L 433.099218 126.300633 C 434.727964 126.302418 436.35036 126.380418 437.973503 126.539732 C 439.590546 126.700048 441.201239 126.936579 442.796931 127.253879 C 444.392623 127.57118 445.969766 127.966699 447.528359 128.440439 C 449.083406 128.911629 450.616355 129.458489 452.121108 130.082022 C 453.62586 130.705555 455.095321 131.400661 456.52949 132.167341 C 457.963659 132.934021 459.358988 133.769725 460.712925 134.678006 C 462.065866 135.580185 463.37032 136.549842 464.628839 137.583424 C 465.88991 138.613455 467.09185 139.703315 468.241755 140.858103 C 469.394213 142.009339 470.486544 143.214304 471.518748 144.472998 C 472.553505 145.72814 473.518487 147.035463 474.4249 148.386862 C 475.328761 149.741813 476.166955 151.135742 476.930833 152.573201 C 477.697262 154.007109 478.394479 155.477446 479.015386 156.979112 C 479.639841 158.483327 480.186991 160.012772 480.657832 161.573546 C 481.131225 163.130768 481.526317 164.707119 481.846657 166.305147 C 482.163449 167.900626 482.400945 169.509132 482.561696 171.127114 C 482.719896 172.748648 482.800355 174.373557 482.799526 175.999291 L 482.800707 176.102459 C 482.799879 177.728194 482.720314 179.351203 482.562013 180.971486 C 482.400165 182.589221 482.162132 184.200678 481.843372 185.797208 C 481.527164 187.390187 481.133776 188.970788 480.661217 190.52681 C 480.186105 192.086383 479.640474 193.616824 479.018224 195.119134 C 478.393421 196.624995 477.699655 198.092071 476.931822 199.527465 C 476.163988 200.96286 475.327191 202.359469 474.423983 203.713742 C 473.517226 205.065465 472.55271 206.370299 471.518234 207.630247 C 470.48631 208.886644 469.393079 210.093601 468.243644 211.244016 C 467.094209 212.394431 465.88857 213.488304 464.631831 214.518533 C 463.37254 215.552312 462.064702 216.518895 460.709311 217.424383 C 459.36002 218.328868 457.964733 219.162606 456.530546 219.930694 C 455.092811 220.696234 453.622275 221.395121 452.120495 222.017706 C 450.615167 222.637741 449.08569 223.186571 447.528516 223.661647 C 445.970347 224.130623 444.394128 224.527391 442.795316 224.843303 C 441.200052 225.161764 439.591843 225.400915 437.970688 225.560756 C 436.349534 225.720597 434.727633 225.799124 433.102435 225.799889 L 302.099157 225.797768 C 300.473959 225.798533 298.848014 225.717983 297.22842 225.561219 C 295.611377 225.400903 294.000684 225.164371 292.404992 224.847071 C 290.805752 224.527221 289.228609 224.131702 287.673563 223.660511 C 286.114969 223.186772 284.58202 222.639912 283.080815 222.018928 C 281.576062 221.395396 280.106601 220.700289 278.672433 219.933609 C 277.234716 219.16438 275.839387 218.328676 274.488998 217.422945 C 273.136056 216.520765 271.831602 215.551109 270.570531 214.521078 C 269.312013 213.487495 268.106525 212.395086 266.954067 211.24385 C 265.80771 210.091611 264.715379 208.886646 263.683174 207.627953 C 262.648418 206.372811 261.679887 205.062938 260.773475 203.711539 C 259.873162 202.359137 259.034967 200.965209 258.27109 199.527749 C 257.501112 198.091292 256.807444 196.623504 256.182989 195.119289 C 255.558534 193.615074 255.011384 192.085629 254.540543 190.524855 C 254.06715 188.967633 253.672057 187.391282 253.355265 185.795803 C 253.038473 184.200324 252.800978 182.591818 252.640226 180.973836 C 252.478479 179.349753 252.401568 177.727394 252.398849 176.09911 L 252.401215 175.998491 C 252.402044 174.372757 252.478061 172.747198 252.63991 171.129464 C 252.79821 169.50918 253.039791 167.900272 253.352451 166.304744 C 253.671211 164.708214 254.068147 163.130162 254.540706 161.57414 C 255.009718 160.015569 255.561448 158.484127 256.183699 156.981817 C 256.808501 155.475955 257.502267 154.008879 258.266553 152.570936 C 259.034387 151.135541 259.871184 149.738932 260.77794 148.387209 C 261.681149 147.032936 262.649213 145.730651 263.683688 144.470703 C 264.712064 143.211757 265.805296 142.0048 266.958279 140.856934 C 268.107714 139.706519 269.313353 138.612646 270.570092 137.582418 C 271.829382 136.548638 273.133673 135.579506 274.489064 134.674018 C 275.841903 133.772082 277.233642 132.935795 278.671377 132.170256 C 280.105564 131.402167 281.579648 130.705829 283.081428 130.083244 C 284.583208 129.46066 286.116233 128.914379 287.673406 128.439303 C 289.228028 127.967778 290.807795 127.573559 292.403059 127.255098 C 294.00187 126.939187 295.61008 126.700036 297.227686 126.537645 C 298.848841 126.377804 300.470742 126.299277 302.099488 126.301061 Z M 302.099488 126.301061 " stroke="#1e1e1e" stroke-width="9.6" stroke-opacity="1" stroke-miterlimit="10"/></g><path fill="#34a853" d="M 246.085938 678.460938 L 246.136719 678.386719 C 246.988281 677.207031 247.890625 676.070312 248.851562 674.980469 C 249.8125 673.886719 250.828125 672.84375 251.890625 671.851562 C 252.953125 670.859375 254.0625 669.921875 255.21875 669.039062 C 256.375 668.15625 257.570312 667.332031 258.808594 666.5625 C 260.046875 665.796875 261.316406 665.09375 262.625 664.453125 C 263.929688 663.8125 265.265625 663.234375 266.625 662.726562 C 267.988281 662.214844 269.375 661.773438 270.78125 661.398438 C 272.1875 661.023438 273.609375 660.71875 275.042969 660.484375 C 276.480469 660.25 277.925781 660.085938 279.378906 659.992188 C 280.828125 659.898438 282.285156 659.875 283.738281 659.925781 C 285.191406 659.976562 286.640625 660.097656 288.082031 660.289062 C 289.527344 660.480469 290.957031 660.742188 292.375 661.074219 C 293.789062 661.40625 295.1875 661.804688 296.566406 662.273438 C 297.941406 662.742188 299.292969 663.28125 300.617188 663.882812 C 301.945312 664.484375 303.234375 665.148438 304.496094 665.875 C 305.753906 666.605469 306.976562 667.394531 308.15625 668.242188 L 403.277344 736.523438 C 404.460938 737.371094 405.597656 738.277344 406.691406 739.234375 C 407.785156 740.195312 408.828125 741.207031 409.820312 742.269531 C 410.816406 743.332031 411.753906 744.441406 412.636719 745.59375 C 413.523438 746.75 414.347656 747.945312 415.117188 749.179688 C 415.882812 750.417969 416.585938 751.6875 417.230469 752.992188 C 417.871094 754.296875 418.449219 755.628906 418.957031 756.992188 C 419.46875 758.351562 419.914062 759.734375 420.285156 761.140625 C 420.660156 762.546875 420.96875 763.964844 421.203125 765.398438 C 421.4375 766.835938 421.601562 768.277344 421.695312 769.730469 C 421.789062 771.179688 421.808594 772.632812 421.761719 774.085938 C 421.710938 775.539062 421.589844 776.984375 421.398438 778.425781 C 421.207031 779.867188 420.945312 781.296875 420.613281 782.710938 C 420.28125 784.128906 419.878906 785.523438 419.410156 786.898438 C 418.941406 788.273438 418.402344 789.625 417.800781 790.949219 C 417.199219 792.273438 416.53125 793.5625 415.804688 794.820312 C 415.074219 796.078125 414.285156 797.296875 413.433594 798.480469 L 413.382812 798.550781 C 412.535156 799.734375 411.628906 800.867188 410.667969 801.960938 C 409.707031 803.050781 408.695312 804.09375 407.628906 805.085938 C 406.566406 806.078125 405.457031 807.019531 404.300781 807.902344 C 403.144531 808.785156 401.949219 809.609375 400.710938 810.375 C 399.476562 811.140625 398.203125 811.847656 396.898438 812.488281 C 395.589844 813.128906 394.257812 813.703125 392.894531 814.214844 C 391.53125 814.726562 390.148438 815.167969 388.742188 815.542969 C 387.335938 815.917969 385.914062 816.222656 384.476562 816.457031 C 383.039062 816.691406 381.597656 816.855469 380.144531 816.949219 C 378.691406 817.042969 377.238281 817.0625 375.78125 817.015625 C 374.328125 816.964844 372.878906 816.84375 371.4375 816.652344 C 369.996094 816.460938 368.5625 816.199219 367.148438 815.867188 C 365.730469 815.535156 364.332031 815.132812 362.957031 814.664062 C 361.578125 814.195312 360.226562 813.660156 358.902344 813.058594 C 357.578125 812.457031 356.285156 811.792969 355.023438 811.0625 C 353.765625 810.335938 352.546875 809.546875 351.363281 808.699219 L 256.242188 740.417969 C 255.058594 739.566406 253.921875 738.664062 252.828125 737.703125 C 251.738281 736.742188 250.691406 735.734375 249.699219 734.671875 C 248.707031 733.609375 247.765625 732.5 246.882812 731.34375 C 246 730.191406 245.171875 728.996094 244.40625 727.757812 C 243.636719 726.523438 242.933594 725.253906 242.292969 723.949219 C 241.648438 722.644531 241.074219 721.308594 240.5625 719.949219 C 240.050781 718.585938 239.609375 717.203125 239.234375 715.800781 C 238.859375 714.394531 238.554688 712.972656 238.320312 711.539062 C 238.082031 710.105469 237.917969 708.660156 237.828125 707.210938 C 237.734375 705.761719 237.710938 704.308594 237.761719 702.855469 C 237.808594 701.402344 237.929688 699.953125 238.121094 698.511719 C 238.316406 697.074219 238.578125 695.644531 238.910156 694.230469 C 239.242188 692.8125 239.640625 691.417969 240.113281 690.042969 C 240.582031 688.664062 241.117188 687.316406 241.71875 685.992188 C 242.324219 684.667969 242.988281 683.378906 243.71875 682.117188 C 244.445312 680.859375 245.234375 679.640625 246.085938 678.460938 Z M 246.085938 678.460938 " fill-opacity="1" fill-rule="nonzero"/><g clip-path="url(#a66aa5a9f3)"><path stroke-linecap="butt" transform="matrix(0.521769, -0.725368, 0.726118, 0.52123, 65.590295, 953.112319)" fill="none" stroke-linejoin="miter" d="M 367.499931 -15.499468 L 367.600549 -15.501835 C 369.228833 -15.499116 370.851193 -15.422204 372.469175 -15.261453 C 374.090708 -15.103254 375.701764 -14.86221 377.297243 -14.545418 C 378.892722 -14.228626 380.469072 -13.833534 382.026295 -13.36014 C 383.583517 -12.886747 385.112962 -12.339597 386.620729 -11.717694 C 388.124944 -11.093239 389.592731 -10.399571 391.029189 -9.629594 C 392.463097 -8.863164 393.860577 -8.027521 395.209427 -7.124657 C 396.564378 -6.220796 397.870699 -5.249714 399.129392 -4.217509 C 400.388086 -3.185304 401.593051 -2.092974 402.741738 -0.944064 C 403.892974 0.208393 404.985384 1.413881 406.018966 2.6724 C 407.049999 3.927371 408.022205 5.235373 408.924384 6.588314 C 409.826564 7.941256 410.662268 9.336585 411.428948 10.770754 C 412.198178 12.20847 412.893284 13.677931 413.516817 15.182684 C 414.1378 16.683889 414.688212 18.214286 415.161951 19.77288 C 415.633141 21.327926 416.02511 22.907621 416.34241 24.503313 C 416.662259 26.102552 416.899793 27.707146 417.062658 29.327736 C 417.219423 30.947331 417.299972 32.573275 417.299207 34.198474 L 417.298779 165.198204 C 417.300564 166.82695 417.218485 168.451402 417.062196 170.070005 C 416.902354 171.69116 416.663203 173.299369 416.344742 174.894633 C 416.028831 176.493444 415.632062 178.069663 415.160538 179.624285 C 414.688011 181.185006 414.139181 182.714483 413.519145 184.219811 C 412.89301 185.724144 412.197673 187.192127 411.432134 188.629862 C 410.664046 190.06405 409.830308 191.459337 408.922271 192.811179 C 408.020335 194.164018 407.053752 195.471857 406.017423 196.7276 C 404.983643 197.98689 403.895871 199.193525 402.745456 200.34296 C 401.591489 201.494948 400.388083 202.585627 399.128135 203.620103 C 397.871739 204.652026 396.563354 205.619095 395.21163 206.525851 C 393.857357 207.42906 392.464299 208.263305 391.028905 209.031138 C 389.593511 209.798972 388.122883 210.49529 386.620573 211.11754 C 385.114712 211.742343 383.584271 212.287974 382.02825 212.760533 C 380.472228 213.233092 378.891627 213.62648 377.295096 213.94524 C 375.698566 214.264001 374.09066 214.499481 372.472926 214.66133 C 370.852642 214.81963 369.229633 214.899195 367.597798 214.899028 L 367.500731 214.898843 C 365.871445 214.902223 364.250087 214.819212 362.628554 214.661013 C 361.010572 214.500262 359.402066 214.262766 357.804037 213.942426 C 356.208559 213.625634 354.628656 213.233093 353.071434 212.7597 C 351.514211 212.286307 349.984767 211.739157 348.480552 211.114702 C 346.978885 210.493795 345.504998 209.799131 344.071089 209.032702 C 342.634632 208.262724 341.243253 207.428077 339.888302 206.524217 C 338.533351 205.620356 337.229579 204.652821 335.970886 203.620617 C 334.712193 202.588412 333.507228 201.496081 332.355991 200.343624 C 331.204755 199.191167 330.114894 197.989227 329.081312 196.730708 C 328.04773 195.472189 327.081625 194.165183 326.173344 192.811246 C 325.271165 191.458304 324.435461 190.062975 323.66878 188.628806 C 322.9021 187.194638 322.204445 185.721629 321.583461 184.220424 C 320.959929 182.715671 320.413069 181.182722 319.941878 179.627676 C 319.468139 178.069082 319.072619 176.491939 318.755319 174.896247 C 318.438019 173.300555 318.197936 171.692414 318.038622 170.069272 C 317.878306 168.452229 317.800306 166.829832 317.798521 165.201086 L 317.798949 34.201356 C 317.800716 32.570058 317.879243 30.948158 318.039085 29.327003 C 318.201475 27.709396 318.434526 26.100191 318.752986 24.504927 C 319.071447 22.909663 319.465666 21.329897 319.940742 19.772723 C 320.412267 18.218101 320.958548 16.685077 321.584684 15.180744 C 322.204719 13.675416 322.900056 12.207433 323.668144 10.773245 C 324.433683 9.33551 325.273522 7.941219 326.175458 6.58838 C 327.080945 5.23299 328.050078 3.928699 329.080306 2.67196 C 330.114086 1.412669 331.207959 0.207031 332.358374 -0.942405 C 333.50624 -2.095388 334.713197 -3.188619 335.972143 -4.216995 C 337.228539 -5.248919 338.534375 -6.219535 339.888648 -7.122743 C 341.240372 -8.0295 342.636981 -8.866297 344.072375 -9.63413 C 345.506767 -10.395864 346.977395 -11.092182 348.479705 -11.714433 C 349.985566 -12.339235 351.513457 -12.888414 353.072029 -13.357425 C 354.631602 -13.832537 356.206102 -14.22692 357.802632 -14.545681 C 359.401712 -14.860893 361.007068 -15.099921 362.630903 -15.260774 C 364.248638 -15.422622 365.871647 -15.502187 367.499931 -15.499468 Z M 367.499931 -15.499468 " stroke="#1e1e1e" stroke-width="9.6" stroke-opacity="1" stroke-miterlimit="10"/></g><g fill="#000000" fill-opacity="1"><g transform="translate(1139.12977, 1041.267984)"><g><path d="M 12.5625 -113.90625 L 34.046875 -113.90625 L 34.046875 -20.359375 L 82.25 -20.359375 L 82.25 0 L 12.5625 0 Z M 12.5625 -113.90625 "/></g></g></g><g fill="#000000" fill-opacity="1"><g transform="translate(1225.937568, 1041.267984)"><g><path d="M 47.40625 2.546875 C 39.34375 2.546875 32.128906 0.742188 25.765625 -2.859375 C 19.410156 -6.460938 14.425781 -11.472656 10.8125 -17.890625 C 7.207031 -24.304688 5.40625 -31.492188 5.40625 -39.453125 C 5.40625 -47.515625 7.207031 -54.726562 10.8125 -61.09375 C 14.425781 -67.457031 19.410156 -72.441406 25.765625 -76.046875 C 32.128906 -79.648438 39.34375 -81.453125 47.40625 -81.453125 C 55.363281 -81.453125 62.523438 -79.648438 68.890625 -76.046875 C 75.253906 -72.441406 80.238281 -67.429688 83.84375 -61.015625 C 87.445312 -54.597656 89.25 -47.410156 89.25 -39.453125 C 89.25 -31.492188 87.445312 -24.304688 83.84375 -17.890625 C 80.238281 -11.472656 75.253906 -6.460938 68.890625 -2.859375 C 62.523438 0.742188 55.363281 2.546875 47.40625 2.546875 Z M 47.40625 -16.703125 C 51.125 -16.703125 54.597656 -17.628906 57.828125 -19.484375 C 61.066406 -21.335938 63.640625 -23.988281 65.546875 -27.4375 C 67.453125 -30.882812 68.40625 -34.890625 68.40625 -39.453125 C 68.40625 -44.015625 67.453125 -48.019531 65.546875 -51.46875 C 63.640625 -54.914062 61.066406 -57.566406 57.828125 -59.421875 C 54.597656 -61.273438 51.125 -62.203125 47.40625 -62.203125 C 43.59375 -62.203125 40.066406 -61.273438 36.828125 -59.421875 C 33.597656 -57.566406 31.023438 -54.914062 29.109375 -51.46875 C 27.203125 -48.019531 26.25 -44.015625 26.25 -39.453125 C 26.25 -34.890625 27.203125 -30.882812 29.109375 -27.4375 C 31.023438 -23.988281 33.597656 -21.335938 36.828125 -19.484375 C 40.066406 -17.628906 43.59375 -16.703125 47.40625 -16.703125 Z M 47.40625 -16.703125 "/></g></g></g><g fill="#000000" fill-opacity="1"><g transform="translate(1320.535772, 1041.267984)"><g><path d="M 9.859375 -78.90625 L 29.4375 -78.90625 L 29.4375 -68.734375 L 30.703125 -68.734375 C 33.140625 -72.648438 36.476562 -75.75 40.71875 -78.03125 C 44.96875 -80.3125 49.742188 -81.453125 55.046875 -81.453125 C 64.703125 -81.453125 72.019531 -78.484375 77 -72.546875 C 81.988281 -66.609375 84.484375 -58.492188 84.484375 -48.203125 L 84.484375 0 L 63.640625 0 L 63.640625 -45.65625 C 63.640625 -51.070312 62.335938 -55.179688 59.734375 -57.984375 C 57.140625 -60.796875 53.507812 -62.203125 48.84375 -62.203125 C 43.21875 -62.203125 38.785156 -60.023438 35.546875 -55.671875 C 32.316406 -51.328125 30.703125 -45.816406 30.703125 -39.140625 L 30.703125 0 L 9.859375 0 Z M 9.859375 -78.90625 "/></g></g></g><g fill="#000000" fill-opacity="1"><g transform="translate(1414.180095, 1041.267984)"><g><path d="M 43.4375 2.546875 C 36.539062 2.546875 30.203125 0.742188 24.421875 -2.859375 C 18.640625 -6.460938 14.023438 -11.445312 10.578125 -17.8125 C 7.128906 -24.175781 5.40625 -31.390625 5.40625 -39.453125 C 5.40625 -47.515625 7.128906 -54.726562 10.578125 -61.09375 C 14.023438 -67.457031 18.640625 -72.441406 24.421875 -76.046875 C 30.203125 -79.648438 36.539062 -81.453125 43.4375 -81.453125 C 48.945312 -81.453125 53.796875 -80.335938 57.984375 -78.109375 C 62.179688 -75.890625 65.335938 -73.03125 67.453125 -69.53125 L 68.734375 -69.53125 L 67.453125 -80.65625 L 67.453125 -113.90625 L 88.140625 -113.90625 L 88.140625 0 L 68.734375 0 L 68.734375 -9.546875 L 67.453125 -9.546875 C 65.335938 -6.046875 62.179688 -3.15625 57.984375 -0.875 C 53.796875 1.40625 48.945312 2.546875 43.4375 2.546875 Z M 47.40625 -16.703125 C 51.125 -16.703125 54.625 -17.628906 57.90625 -19.484375 C 61.195312 -21.335938 63.820312 -23.988281 65.78125 -27.4375 C 67.75 -30.882812 68.734375 -34.890625 68.734375 -39.453125 C 68.734375 -44.015625 67.75 -48.019531 65.78125 -51.46875 C 63.820312 -54.914062 61.195312 -57.566406 57.90625 -59.421875 C 54.625 -61.273438 51.125 -62.203125 47.40625 -62.203125 C 43.695312 -62.203125 40.222656 -61.273438 36.984375 -59.421875 C 33.753906 -57.566406 31.15625 -54.914062 29.1875 -51.46875 C 27.226562 -48.019531 26.25 -44.015625 26.25 -39.453125 C 26.25 -34.992188 27.226562 -31.039062 29.1875 -27.59375 C 31.15625 -24.15625 33.753906 -21.476562 36.984375 -19.5625 C 40.222656 -17.65625 43.695312 -16.703125 47.40625 -16.703125 Z M 47.40625 -16.703125 "/></g></g></g><g fill="#000000" fill-opacity="1"><g transform="translate(1512.117044, 1041.267984)"><g><path d="M 47.40625 2.546875 C 39.34375 2.546875 32.128906 0.742188 25.765625 -2.859375 C 19.410156 -6.460938 14.425781 -11.472656 10.8125 -17.890625 C 7.207031 -24.304688 5.40625 -31.492188 5.40625 -39.453125 C 5.40625 -47.515625 7.207031 -54.726562 10.8125 -61.09375 C 14.425781 -67.457031 19.410156 -72.441406 25.765625 -76.046875 C 32.128906 -79.648438 39.34375 -81.453125 47.40625 -81.453125 C 55.363281 -81.453125 62.523438 -79.648438 68.890625 -76.046875 C 75.253906 -72.441406 80.238281 -67.429688 83.84375 -61.015625 C 87.445312 -54.597656 89.25 -47.410156 89.25 -39.453125 C 89.25 -31.492188 87.445312 -24.304688 83.84375 -17.890625 C 80.238281 -11.472656 75.253906 -6.460938 68.890625 -2.859375 C 62.523438 0.742188 55.363281 2.546875 47.40625 2.546875 Z M 47.40625 -16.703125 C 51.125 -16.703125 54.597656 -17.628906 57.828125 -19.484375 C 61.066406 -21.335938 63.640625 -23.988281 65.546875 -27.4375 C 67.453125 -30.882812 68.40625 -34.890625 68.40625 -39.453125 C 68.40625 -44.015625 67.453125 -48.019531 65.546875 -51.46875 C 63.640625 -54.914062 61.066406 -57.566406 57.828125 -59.421875 C 54.597656 -61.273438 51.125 -62.203125 47.40625 -62.203125 C 43.59375 -62.203125 40.066406 -61.273438 36.828125 -59.421875 C 33.597656 -57.566406 31.023438 -54.914062 29.109375 -51.46875 C 27.203125 -48.019531 26.25 -44.015625 26.25 -39.453125 C 26.25 -34.890625 27.203125 -30.882812 29.109375 -27.4375 C 31.023438 -23.988281 33.597656 -21.335938 36.828125 -19.484375 C 40.066406 -17.628906 43.59375 -16.703125 47.40625 -16.703125 Z M 47.40625 -16.703125 "/></g></g></g><g fill="#000000" fill-opacity="1"><g transform="translate(1606.715248, 1041.267984)"><g><path d="M 9.859375 -78.90625 L 29.4375 -78.90625 L 29.4375 -68.734375 L 30.703125 -68.734375 C 33.140625 -72.648438 36.476562 -75.75 40.71875 -78.03125 C 44.96875 -80.3125 49.742188 -81.453125 55.046875 -81.453125 C 64.703125 -81.453125 72.019531 -78.484375 77 -72.546875 C 81.988281 -66.609375 84.484375 -58.492188 84.484375 -48.203125 L 84.484375 0 L 63.640625 0 L 63.640625 -45.65625 C 63.640625 -51.070312 62.335938 -55.179688 59.734375 -57.984375 C 57.140625 -60.796875 53.507812 -62.203125 48.84375 -62.203125 C 43.21875 -62.203125 38.785156 -60.023438 35.546875 -55.671875 C 32.316406 -51.328125 30.703125 -45.816406 30.703125 -39.140625 L 30.703125 0 L 9.859375 0 Z M 9.859375 -78.90625 "/></g></g></g></svg>